<svg xmlns="http://www.w3.org/2000/svg" viewBox="0 0 463.79 156.71"><defs><style>.cls-1{fill:#ec4d0f;}.cls-2{fill:#24221e;}</style></defs><g id="Слой_2" data-name="Слой 2"><g id="Слой_1-2" data-name="Слой 1"><path class="cls-1" d="M199.72,156.63c6.16-13.67,12.33-27.33,18.53-41.09l18.56,41.17c-.21-.08-.35-.12-.48-.18q-8.87-3.67-17.74-7.35a.81.81,0,0,0-.71,0l-17.71,7.32-.38.16Zm7-6.79.06,0c.1,0,.21-.07.31-.12q5.39-2.22,10.77-4.46a.93.93,0,0,1,.78,0l10.76,4.46c.11.05.23.08.39.14a3.07,3.07,0,0,0-.15-.37Q224,137,218.29,124.39h-.09Q212.46,137.1,206.72,149.84Z"/><path class="cls-2" d="M104,115.68h3.9l8.29,31.73,7.16-31.73h5.9l-9.88,40.47h-5.79l-7.46-28.28-7.8,28.28H92.52l-9.88-40.47h5.9l7.15,31.73Z"/><path class="cls-2" d="M137,155.07a10,10,0,0,1-4.32-4.41,15.21,15.21,0,0,1-1.49-7v-3.26a17,17,0,0,1,1.43-7.32,10.29,10.29,0,0,1,4.16-4.62,12.84,12.84,0,0,1,6.57-1.59,10.49,10.49,0,0,1,6.18,1.81,11.25,11.25,0,0,1,3.91,5.23,22.47,22.47,0,0,1,1.35,8.22V144H135.31v-4.57h14.08a9.7,9.7,0,0,0-1.82-5.49,5.14,5.14,0,0,0-4.22-2,6.17,6.17,0,0,0-5,2.12,9.13,9.13,0,0,0-1.76,6v3.68a7.53,7.53,0,0,0,1.89,5.51,7.2,7.2,0,0,0,5.37,1.92,9.09,9.09,0,0,0,3.43-.69,10.09,10.09,0,0,0,3-1.95l3.73,3.73a15.66,15.66,0,0,1-4.82,3.18,13.56,13.56,0,0,1-5.37,1.13A14.53,14.53,0,0,1,137,155.07Z"/><path class="cls-2" d="M162.59,115.68h5.67v40.47h-5.67Zm8.24,39.6a7.68,7.68,0,0,1-3-3.66l.39-6a7,7,0,0,0,.67,3.17,4.63,4.63,0,0,0,1.94,2,6.22,6.22,0,0,0,3.07.7,5.57,5.57,0,0,0,4.36-1.71,7,7,0,0,0,1.54-4.83v-6.26a7.21,7.21,0,0,0-1.54-4.93,5.5,5.5,0,0,0-4.36-1.76,6.57,6.57,0,0,0-3.07.67,4.53,4.53,0,0,0-1.94,2,6.8,6.8,0,0,0-.67,3.11l-.58-5.57a10,10,0,0,1,3.42-3.91,8.44,8.44,0,0,1,4.71-1.38,9.65,9.65,0,0,1,5.25,1.38,8.69,8.69,0,0,1,3.32,4,16.1,16.1,0,0,1,1.14,6.38v6.29a15.32,15.32,0,0,1-1.17,6.29,8.67,8.67,0,0,1-3.42,4,10.13,10.13,0,0,1-5.4,1.38A8.47,8.47,0,0,1,170.83,155.28Z"/><path class="cls-2" d="M280.89,115.68h5.32v40.47h-5.54V125.84l.27,1.78-10,22.91h-4l-10-22.35.28-2.34v30.31H251.8V115.68h5.32L269,142.4Z"/><path class="cls-2" d="M300.65,155.07a10.08,10.08,0,0,1-4.33-4.41,15.33,15.33,0,0,1-1.49-7v-3.26a16.94,16.94,0,0,1,1.44-7.32,10.23,10.23,0,0,1,4.16-4.62,12.84,12.84,0,0,1,6.57-1.59,10.49,10.49,0,0,1,6.18,1.81,11.25,11.25,0,0,1,3.91,5.23,22.47,22.47,0,0,1,1.35,8.22V144H299v-4.57H313a9.78,9.78,0,0,0-1.82-5.49,5.14,5.14,0,0,0-4.22-2,6.17,6.17,0,0,0-5,2.12,9.07,9.07,0,0,0-1.76,6v3.68a7.53,7.53,0,0,0,1.89,5.51,7.2,7.2,0,0,0,5.37,1.92,9,9,0,0,0,3.42-.69,10,10,0,0,0,3-1.95l3.73,3.73a15.78,15.78,0,0,1-4.82,3.18,13.56,13.56,0,0,1-5.37,1.13A14.53,14.53,0,0,1,300.65,155.07Z"/><path class="cls-2" d="M326.23,127.26h5.68v28.89h-5.68Zm17.54,11.39a6.61,6.61,0,0,0-1.59-4.74,6.87,6.87,0,0,0-8.75-.19,5.51,5.51,0,0,0-1.52,4.15l-.58-5.57a10.28,10.28,0,0,1,3.49-4,8.56,8.56,0,0,1,4.78-1.42,9,9,0,0,1,7.28,3.08q2.56,3.08,2.57,8.7v17.53h-5.68Z"/><path class="cls-2" d="M363.76,144.82a6.64,6.64,0,0,0,1.54,4.7,5.68,5.68,0,0,0,4.36,1.65A6,6,0,0,0,374,149.7a5.59,5.59,0,0,0,1.53-4.21l.39,6a8.16,8.16,0,0,1-7.82,5,9.15,9.15,0,0,1-7.39-3.07c-1.73-2.05-2.6-4.95-2.6-8.68V127.26h5.68Zm11.74-17.56h5.66v28.89H375.5Z"/><path d="M0,2A151.25,151.25,0,0,1,25.05,0C38,0,47.4,3,53.4,8.4c5.55,4.8,8.85,12.15,8.85,21.15,0,9.15-2.7,16.35-7.8,21.6-6.9,7.35-18.15,11.1-30.9,11.1a44.92,44.92,0,0,1-10.5-.9v40.5H0ZM13.05,50.7a43.76,43.76,0,0,0,10.8,1c15.75,0,25.35-7.65,25.35-21.6,0-13.35-9.45-19.8-23.85-19.8a54.76,54.76,0,0,0-12.3,1.05Z"/><path d="M91.65,8.85c.15,4.5-3.15,8.1-8.4,8.1a7.85,7.85,0,0,1-8-8.1A8,8,0,0,1,83.55.6C88.5.6,91.65,4.2,91.65,8.85Zm-14.7,93V29.25h13.2v72.6Z"/><path d="M177.75,65c0,26.85-18.6,38.55-36.15,38.55-19.65,0-34.8-14.4-34.8-37.35,0-24.3,15.9-38.55,36-38.55C163.65,27.6,177.75,42.75,177.75,65Zm-57.6.75c0,15.9,9.15,27.9,22,27.9,12.6,0,22.05-11.85,22.05-28.2,0-12.3-6.15-27.9-21.75-27.9S120.15,51.9,120.15,65.7Z"/><path d="M194.4,48.9c0-7.5-.15-13.65-.6-19.65h11.7l.75,12h.3c3.6-6.9,12-13.65,24-13.65,10,0,25.65,6,25.65,30.9v43.35H243V60c0-11.7-4.35-21.45-16.8-21.45-8.7,0-15.45,6.15-17.7,13.5a19,19,0,0,0-.9,6.15v43.65H194.4Z"/><path d="M285,68c.3,17.85,11.7,25.2,24.9,25.2,9.45,0,15.15-1.65,20.1-3.75l2.25,9.45c-4.65,2.1-12.6,4.5-24.15,4.5-22.35,0-35.7-14.7-35.7-36.6S285.3,27.6,306.45,27.6c23.7,0,30,20.85,30,34.2A49.79,49.79,0,0,1,336,68Zm38.7-9.45c.15-8.4-3.45-21.45-18.3-21.45-13.35,0-19.2,12.3-20.25,21.45Z"/><path d="M360.15,68c.3,17.85,11.7,25.2,24.9,25.2,9.45,0,15.15-1.65,20.1-3.75l2.25,9.45c-4.65,2.1-12.6,4.5-24.15,4.5-22.35,0-35.7-14.7-35.7-36.6S360.45,27.6,381.6,27.6c23.69,0,30,20.85,30,34.2a52.33,52.33,0,0,1-.44,6.15Zm38.7-9.45c.15-8.4-3.45-21.45-18.3-21.45-13.35,0-19.2,12.3-20.25,21.45Z"/><path d="M428,51.9c0-8.55-.15-15.9-.6-22.65H438.9l.45,14.25h.6c3.3-9.75,11.25-15.9,20.09-15.9a14.28,14.28,0,0,1,3.75.45V40.5a19.83,19.83,0,0,0-4.5-.45c-9.29,0-15.89,7.05-17.69,17a37.15,37.15,0,0,0-.6,6.15v38.7H428Z"/></g></g></svg>