<svg xmlns="http://www.w3.org/2000/svg" viewBox="0 0 963.69 108"><defs><style>.cls-1{fill:#ec4d0f;}</style></defs><g id="Слой_2" data-name="Слой 2"><g id="Слой_1-2" data-name="Слой 1"><path d="M0,6.45A151.25,151.25,0,0,1,25.05,4.5c12.9,0,22.35,3,28.35,8.4,5.55,4.8,8.85,12.15,8.85,21.15,0,9.15-2.7,16.35-7.8,21.6-6.9,7.35-18.15,11.1-30.9,11.1a44.92,44.92,0,0,1-10.5-.9v40.5H0ZM13.05,55.2a43.76,43.76,0,0,0,10.8,1c15.75,0,25.35-7.65,25.35-21.6,0-13.35-9.45-19.8-23.85-19.8a54.76,54.76,0,0,0-12.3,1.05Z"/><path d="M91.65,13.35c.15,4.5-3.15,8.1-8.4,8.1a7.85,7.85,0,0,1-8-8.1A8,8,0,0,1,83.55,5.1C88.5,5.1,91.65,8.7,91.65,13.35Zm-14.7,93V33.75h13.2v72.6Z"/><path d="M177.75,69.45c0,26.85-18.6,38.55-36.15,38.55-19.65,0-34.8-14.4-34.8-37.35,0-24.3,15.9-38.55,36-38.55C163.65,32.1,177.75,47.25,177.75,69.45Zm-57.6.75c0,15.9,9.15,27.9,22,27.9,12.6,0,22.05-11.85,22.05-28.2,0-12.3-6.15-27.9-21.75-27.9S120.15,56.4,120.15,70.2Z"/><path d="M194.4,53.4c0-7.5-.15-13.65-.6-19.65h11.7l.75,12h.3c3.6-6.9,12-13.65,24-13.65,10,0,25.65,6,25.65,30.9v43.35H243V64.5c0-11.7-4.35-21.45-16.8-21.45-8.7,0-15.45,6.15-17.7,13.5a19,19,0,0,0-.9,6.15v43.65H194.4Z"/><path d="M285,72.45c.3,17.85,11.7,25.2,24.9,25.2,9.45,0,15.15-1.65,20.1-3.75l2.25,9.45c-4.65,2.1-12.6,4.5-24.15,4.5-22.35,0-35.7-14.7-35.7-36.6S285.3,32.1,306.45,32.1c23.7,0,30,20.85,30,34.2a49.79,49.79,0,0,1-.45,6.15ZM323.7,63c.15-8.4-3.45-21.45-18.3-21.45-13.35,0-19.2,12.3-20.25,21.45Z"/><path d="M360.15,72.45c.3,17.85,11.7,25.2,24.9,25.2,9.45,0,15.15-1.65,20.1-3.75l2.25,9.45c-4.65,2.1-12.6,4.5-24.15,4.5-22.35,0-35.7-14.7-35.7-36.6S360.45,32.1,381.6,32.1c23.69,0,30,20.85,30,34.2a52.33,52.33,0,0,1-.44,6.15ZM398.85,63c.15-8.4-3.45-21.45-18.3-21.45-13.35,0-19.2,12.3-20.25,21.45Z"/><path d="M428,56.4c0-8.55-.15-15.9-.6-22.65H438.9L439.35,48h.6c3.3-9.75,11.25-15.9,20.09-15.9a14.28,14.28,0,0,1,3.75.45V45a19.83,19.83,0,0,0-4.5-.45c-9.29,0-15.89,7.05-17.69,17a37.15,37.15,0,0,0-.6,6.15v38.7H428Z"/><path class="cls-1" d="M488.22,107.77,536.13,1.53l48,106.47c-.55-.21-.9-.32-1.25-.46Q559.95,98,537,88.52a2.15,2.15,0,0,0-1.84,0q-22.89,9.51-45.79,19l-1,.4Zm18.1-17.55.15.14c.27-.1.54-.19.8-.3q13.92-5.76,27.84-11.53a2.34,2.34,0,0,1,2,0Q551,84.34,565,90.08c.28.12.58.21,1,.36-.17-.44-.27-.71-.39-1q-14.67-32.52-29.36-65s-.05,0-.08,0H536Q521.17,57.29,506.32,90.22Z"/><path d="M618.1,6.75A126.45,126.45,0,0,1,642,4.65c13,0,21.45,2.25,27.75,7.35,5.25,3.9,8.4,9.9,8.4,17.85,0,9.75-6.45,18.3-17.1,22.2v.3c9.6,2.4,20.85,10.35,20.85,25.35A27.25,27.25,0,0,1,673.3,98c-7,6.45-18.45,9.45-34.95,9.45a152.56,152.56,0,0,1-20.25-1.2Zm13,41.4H643c13.8,0,21.9-7.2,21.9-16.95,0-11.85-9-16.5-22.2-16.5a56,56,0,0,0-11.55.9Zm0,48.45a69.73,69.73,0,0,0,11,.6c13.5,0,25.95-5,25.95-19.65,0-13.8-11.85-19.5-26.1-19.5h-10.8Z"/><path d="M699,56.55c0-8.55-.15-15.9-.6-22.65H709.9l.45,14.25h.6c3.3-9.75,11.25-15.9,20.1-15.9a14.28,14.28,0,0,1,3.75.45V45.15a19.83,19.83,0,0,0-4.5-.45c-9.3,0-15.9,7-17.7,16.95a37.15,37.15,0,0,0-.6,6.15v38.7H699Z"/><path d="M763.3,13.5c.15,4.5-3.15,8.1-8.4,8.1A7.85,7.85,0,0,1,747,13.5a8,8,0,0,1,8.25-8.25C760.15,5.25,763.3,8.85,763.3,13.5Zm-14.7,93V33.9h13.2v72.6Z"/><path d="M835.44,103.8c-3.45,1.8-11.1,4.2-20.85,4.2-21.89,0-36.14-14.85-36.14-37s15.3-38.55,39-38.55c7.8,0,14.7,2,18.3,3.75l-3,10.2c-3.15-1.8-8.1-3.45-15.3-3.45-16.65,0-25.65,12.3-25.65,27.45,0,16.8,10.8,27.15,25.2,27.15a37.5,37.5,0,0,0,16.2-3.6Z"/><path d="M864,67.2h.3c1.79-2.55,4.34-5.7,6.45-8.25L892,33.9h15.9l-28,29.85,31.95,42.75h-16l-25-34.8L864,79.2v27.3H850.9V0H864Z"/><path d="M919.44,93a34.59,34.59,0,0,0,17.4,5.25c9.6,0,14.1-4.8,14.1-10.8,0-6.3-3.75-9.75-13.5-13.35-13.05-4.65-19.2-11.85-19.2-20.55,0-11.7,9.45-21.3,25-21.3a36.24,36.24,0,0,1,17.85,4.5l-3.3,9.6A28.25,28.25,0,0,0,943,42.15c-7.8,0-12.15,4.5-12.15,9.9,0,6,4.35,8.7,13.8,12.3,12.6,4.8,19.05,11.1,19.05,21.9,0,12.75-9.9,21.75-27.15,21.75-7.95,0-15.3-2-20.4-5Z"/></g></g></svg>