<svg xmlns="http://www.w3.org/2000/svg" viewBox="0 0 299.27 91.55"><defs><style>.cls-1{fill:#fff;}</style></defs><g id="Слой_2" data-name="Слой 2"><g id="Слой_1-2" data-name="Слой 1"><path class="cls-1" d="M222.56,11.15l76.71,34.59L222.4,80.4c.14-.39.23-.65.33-.9q6.86-16.56,13.73-33.12a1.58,1.58,0,0,0,0-1.33Q229.6,28.54,222.76,12c-.1-.24-.19-.48-.28-.72Zm12.67,13.06-.1.12c.07.19.14.38.22.57Q239.51,35,243.68,45a1.73,1.73,0,0,1,0,1.46q-4.18,10-8.34,20.1c-.08.2-.15.41-.26.73l.7-.28,47-21.21s0,0,0-.05,0,0,0-.12Z"/><path class="cls-1" d="M0,1.42A86.15,86.15,0,0,1,16.17,0C25,0,30.72,1.53,35,5c3.56,2.65,5.7,6.72,5.7,12.11,0,6.61-4.38,12.41-11.6,15.05v.21c6.51,1.62,14.14,7,14.14,17.19a18.48,18.48,0,0,1-5.8,13.73c-4.78,4.37-12.51,6.41-23.7,6.41A104.82,104.82,0,0,1,0,68.87ZM8.85,29.5h8c9.35,0,14.85-4.88,14.85-11.5,0-8-6.11-11.18-15.06-11.18a37.55,37.55,0,0,0-7.83.61Zm0,32.86a48.11,48.11,0,0,0,7.43.4c9.15,0,17.59-3.35,17.59-13.32,0-9.36-8-13.23-17.7-13.23H8.85Z"/><path class="cls-1" d="M59,19.84,75.28,41.3h1.83V19.84h8.54V41.3h1.73l16.28-21.46h10.27L94.5,42.21c7.43.82,11.8,5.19,14.75,13,1.73,4.79,3.36,10,5.39,13.84h-9a72.86,72.86,0,0,1-4.48-11.29c-3-8-7.63-10.48-14-10.48H85.65V69.07H77.11V47.3H75.48c-6.92,0-11.09,2.54-14.14,10.58-1.63,4.27-3,8.14-4.68,11.19H48c2-4,3.67-9.16,5.4-13.73C56.46,47.4,60.83,43,68.26,42.21L48.73,19.84Z"/><path class="cls-1" d="M126.65,19.84l10.78,29.09c1.12,3.25,2.34,7.12,3.15,10.07h.2c.92-3,1.94-6.72,3.16-10.28l9.76-28.88h9.46L149.74,54.93C143.33,71.82,139,80.46,132.85,85.75a24.23,24.23,0,0,1-11,5.8L119.63,84a23.7,23.7,0,0,0,7.83-4.37,27.26,27.26,0,0,0,7.53-10,6.61,6.61,0,0,0,.71-2.14,7.7,7.7,0,0,0-.61-2.34L116.88,19.84Z"/><path class="cls-1" d="M175.88,19.84l7,10.57c1.83,2.75,3.35,5.29,5,8h.31c1.63-3,3.25-5.49,4.88-8.14L200,19.84h9.66l-16.78,23.8,17.29,25.43H200L192.76,58c-1.93-2.85-3.56-5.59-5.28-8.54h-.21c-1.63,3-3.35,5.59-5.19,8.54L175,69.07H165.1l17.49-25.13-16.68-24.1Z"/></g></g></svg>